<?xml version="1.0" encoding="UTF-8"?>
<svg width="240px" height="85px" viewBox="0 0 240 85" version="1.1" xmlns="http://www.w3.org/2000/svg" xmlns:xlink="http://www.w3.org/1999/xlink">
    <title>chromecast-built-in-vector-logo</title>
    <g id="Desktop" stroke="none" stroke-width="1" fill="none" fill-rule="evenodd">
        <g id="Apps-/-CAST" transform="translate(-259.000000, -762.000000)" fill-rule="nonzero">
            <g id="chromecast-built-in-vector-logo" transform="translate(259.000000, 762.000000)">
                <path d="M0,5.66666667 C0,2.53191489 2.52042007,0 5.64094016,0 L234.35906,0 C237.47958,0 240,2.53191489 240,5.66666667 L240,79.3333333 C240,82.4680851 237.47958,85 234.35906,85 L5.64094016,85 C2.52042007,85 0,82.4680851 0,79.3333333 L0,5.66666667 Z" id="Path" fill="#231815"></path>
                <path d="M64.6107685,21.4208038 L22.4437406,21.4208038 C19.8833139,21.4208038 17.7629605,23.5508274 17.7629605,26.1229314 L17.7629605,33.1962175 L22.4437406,33.1962175 L22.4437406,26.1229314 L64.6107685,26.1229314 L64.6107685,59.0780142 L48.2080347,59.0780142 L48.2080347,63.7801418 L64.6107685,63.7801418 C67.1711952,63.7801418 69.2915486,61.6501182 69.2915486,59.0780142 L69.2915486,26.1229314 C69.3315553,23.5508274 67.2112019,21.4208038 64.6107685,21.4208038 M17.7229538,56.7470449 L17.7229538,63.820331 L24.7641274,63.820331 C24.7641274,59.9219858 21.6436073,56.7470449 17.7229538,56.7470449 M17.7229538,47.3427896 L17.7229538,52.0449173 C24.204034,52.0449173 29.4449075,57.3096927 29.4449075,63.820331 L34.1256876,63.820331 C34.1256876,54.6973995 26.8044674,47.3427896 17.7229538,47.3427896 M17.7229538,37.9385343 L17.7229538,42.6406619 C29.3648941,42.6406619 38.8064677,52.1252955 38.8064677,63.820331 L43.4873514,63.820331 C43.5272545,49.5130024 31.9653276,37.9385343 17.7229538,37.9385343" id="Shape" fill="#48B2E6"></path>
                <path d="M89.9749958,63.5791962 C89.0548425,63.5791962 88.2547091,63.3782506 87.4945824,62.9763593 C86.7344557,62.5744681 86.1743624,62.0921986 85.7742957,61.4491726 L85.6942824,61.4491726 L85.6942824,63.177305 L83.4939157,63.177305 L83.4939157,45.0921986 L85.8143024,45.0921986 L85.8143024,50.7990544 L85.734289,52.5271868 L85.8143024,52.5271868 C86.2143691,51.8841608 86.7744624,51.3617021 87.5345891,51 C88.2947158,50.6382979 89.0948491,50.3971631 90.0150025,50.3971631 C91.6552759,50.3971631 93.0155026,51.0401891 94.1356893,52.3262411 C95.2958826,53.6122931 95.855976,55.179669 95.855976,56.9881797 C95.855976,58.8368794 95.2958826,60.3640662 94.1356893,61.6501182 C92.9754959,62.9361702 91.5752625,63.5791962 89.9749958,63.5791962 M89.5749292,61.4491726 C90.6951159,61.4491726 91.6152692,61.0472813 92.3753959,60.2033097 C93.1355226,59.3593381 93.4955826,58.3144208 93.4955826,56.9881797 C93.4955826,55.7021277 93.1355226,54.6170213 92.3753959,53.7730496 C91.6152692,52.929078 90.6951159,52.5271868 89.5749292,52.5271868 C88.4547425,52.5271868 87.4945824,52.929078 86.7744624,53.7730496 C86.0543424,54.6170213 85.6542757,55.7021277 85.6542757,56.9881797 C85.6542757,58.3144208 86.0143357,59.3995272 86.7744624,60.2033097 C87.5345891,61.0472813 88.4547425,61.4491726 89.5749292,61.4491726" id="Shape" fill="#FFFFFF"></path>
                <path d="M108.618103,63.177305 L106.417736,63.177305 L106.417736,61.4491726 L106.297716,61.4491726 C105.937656,62.0520095 105.41757,62.5744681 104.657443,62.9763593 C103.937323,63.3782506 103.177196,63.5791962 102.377063,63.5791962 C100.856809,63.5791962 99.6966161,63.1371158 98.8964827,62.2931442 C98.0963494,61.4089835 97.6962827,60.2033097 97.6962827,58.5957447 L97.6962827,50.7990544 L100.016669,50.7990544 L100.016669,58.4349882 C100.056676,60.4444444 101.096849,61.4893617 103.057176,61.4893617 C103.97733,61.4893617 104.737456,61.1276596 105.377563,60.3640662 C106.01767,59.6004728 106.297716,58.7163121 106.297716,57.6713948 L106.297716,50.8392435 L108.618103,50.8392435 L108.618103,63.177305 L108.618103,63.177305 Z" id="Path" fill="#FFFFFF"></path>
                <path d="M114.41907,46.5390071 C114.41907,46.9810875 114.259043,47.3829787 113.93899,47.7044917 C113.618936,48.0260047 113.21887,48.1867612 112.778796,48.1867612 C112.338723,48.1867612 111.938656,48.0260047 111.618603,47.7044917 C111.29855,47.3829787 111.138523,46.9810875 111.138523,46.5390071 C111.138523,46.0969267 111.29855,45.6950355 111.618603,45.3735225 C111.938656,45.0520095 112.338723,44.891253 112.778796,44.891253 C113.21887,44.891253 113.618936,45.0520095 113.93899,45.3735225 C114.259043,45.6950355 114.41907,46.0969267 114.41907,46.5390071 M113.93899,63.177305 L111.618603,63.177305 L111.618603,50.7990544 L113.93899,50.7990544 L113.93899,63.177305 Z" id="Shape" fill="#FFFFFF"></path>
                <rect id="Rectangle" fill="#FFFFFF" x="116.93949" y="45.0921986" width="2.32038673" height="18.0851064"></rect>
                <path d="M127.101184,63.3782506 C126.101017,63.3782506 125.260877,63.0567376 124.580763,62.4539007 C123.90065,61.8108747 123.580597,60.9669031 123.580597,59.8416076 L123.580597,52.929078 L121.420237,52.929078 L121.420237,50.7990544 L123.580597,50.7990544 L123.580597,47.0212766 L125.900983,47.0212766 L125.900983,50.7990544 L128.94149,50.7990544 L128.94149,52.929078 L125.900983,52.929078 L125.900983,59.0780142 C125.900983,59.9219858 126.06101,60.4444444 126.381064,60.7659574 C126.701117,61.0472813 127.061177,61.2080378 127.461244,61.2080378 L127.98133,61.1276596 L128.46141,60.9669031 L129.18153,63.0567376 C128.58143,63.2576832 127.901317,63.3782506 127.101184,63.3782506" id="Path" fill="#FFFFFF"></path>
                <rect id="Rectangle" fill="#FFFFFF" x="131.10185" y="54.3758865" width="8.04134022" height="1.92907801"></rect>
                <path d="M144.984164,46.5390071 C144.984164,46.9810875 144.824137,47.3829787 144.504084,47.7044917 C144.184031,48.0260047 143.783964,48.1867612 143.343891,48.1867612 C142.903817,48.1867612 142.503751,48.0260047 142.183697,47.7044917 C141.863644,47.3829787 141.703617,46.9810875 141.703617,46.5390071 C141.703617,46.0969267 141.863644,45.6950355 142.183697,45.3735225 C142.503751,45.0520095 142.903817,44.891253 143.343891,44.891253 C143.783964,44.891253 144.184031,45.0520095 144.504084,45.3735225 C144.784131,45.6950355 144.984164,46.0969267 144.984164,46.5390071 M144.504084,63.177305 L142.183697,63.177305 L142.183697,50.7990544 L144.504084,50.7990544 L144.504084,63.177305 Z" id="Shape" fill="#FFFFFF"></path>
                <path d="M147.504584,50.7990544 L149.704951,50.7990544 L149.704951,52.5271868 L149.824971,52.5271868 C150.185031,51.9243499 150.705118,51.4018913 151.425238,51 C152.145358,50.5981087 152.905484,50.3971631 153.705618,50.3971631 C155.225871,50.3971631 156.386064,50.8392435 157.186198,51.6832151 C157.986331,52.5673759 158.386398,53.7730496 158.386398,55.3806147 L158.386398,63.177305 L156.066011,63.177305 L156.066011,55.5413712 C156.026004,53.5319149 154.985831,52.4869976 153.025504,52.4869976 C152.105351,52.4869976 151.345224,52.8486998 150.705118,53.6122931 C150.065011,54.3758865 149.784964,55.2600473 149.784964,56.3049645 L149.784964,63.1371158 L147.464577,63.1371158 L147.464577,50.7990544 L147.504584,50.7990544 Z" id="Path" fill="#FFFFFF"></path>
                <path d="M102.53709,27.7304965 L102.41707,29.498818 L102.53709,29.498818 C103.217203,28.3333333 104.81747,27.2884161 106.577763,27.2884161 C109.818303,27.2884161 111.41857,29.498818 111.41857,32.6737589 L111.41857,40.5106383 L109.01817,40.5106383 L109.01817,33.035461 C109.01817,30.3829787 107.69795,29.498818 105.857643,29.498818 C103.777296,29.498818 102.497083,31.5082742 102.497083,33.4373522 L102.497083,40.5106383 L100.096683,40.5106383 L100.096683,21.822695 L102.497083,21.822695 L102.497083,27.7304965 L102.53709,27.7304965 Z" id="Path" fill="#FFFFFF"></path>
                <path d="M113.93899,40.5106383 L113.93899,27.7304965 L116.21937,27.7304965 L116.21937,29.820331 L116.33939,29.820331 C116.859477,28.3735225 118.699783,27.4089835 120.020003,27.4089835 C120.820137,27.4089835 121.300217,27.4893617 121.820303,27.7304965 L120.90015,29.9810875 C120.54009,29.8605201 120.140023,29.7801418 119.619937,29.7801418 C117.979663,29.7801418 116.299383,31.1465721 116.299383,33.5177305 L116.299383,40.5106383 L113.93899,40.5106383 Z" id="Path" fill="#FFFFFF"></path>
                <path d="M135.102517,34.1205674 C135.102517,38.0189125 132.382064,40.9527187 128.541424,40.9527187 C124.700783,40.9527187 121.98033,38.0189125 121.98033,34.1205674 C121.98033,30.2222222 124.700783,27.2884161 128.541424,27.2884161 C132.382064,27.2884161 135.102517,30.2222222 135.102517,34.1205674 M132.702117,34.1205674 C132.702117,31.1867612 130.661777,29.498818 128.541424,29.498818 C126.42107,29.498818 124.38073,31.1867612 124.38073,34.1205674 C124.38073,37.0543735 126.42107,38.7423168 128.541424,38.7423168 C130.701784,38.7423168 132.702117,37.0543735 132.702117,34.1205674" id="Shape" fill="#FFFFFF"></path>
                <path d="M137.022837,27.7304965 L139.303217,27.7304965 L139.303217,29.498818 L139.423237,29.498818 C140.143357,28.2931442 141.823637,27.2884161 143.343891,27.2884161 C145.424237,27.2884161 146.744457,28.212766 147.384564,29.7399527 C148.304717,28.2931442 149.864977,27.2884161 151.825304,27.2884161 C154.945824,27.2884161 156.386064,29.498818 156.386064,32.6737589 L156.386064,40.5106383 L153.985664,40.5106383 L153.985664,33.035461 C153.985664,30.3829787 152.985498,29.498818 151.145191,29.498818 C149.184864,29.498818 147.904651,31.5082742 147.904651,33.4373522 L147.904651,40.5106383 L145.504251,40.5106383 L145.504251,33.035461 C145.504251,30.3829787 144.504084,29.498818 142.663777,29.498818 C140.703451,29.498818 139.423237,31.5082742 139.423237,33.4373522 L139.423237,40.5106383 L137.022837,40.5106383 L137.022837,27.7304965 L137.022837,27.7304965 Z" id="Path" fill="#FFFFFF"></path>
                <path d="M158.186364,34.1205674 C158.186364,30.5035461 160.706784,27.2884161 164.427405,27.2884161 C168.228038,27.2884161 170.668445,29.9810875 170.668445,34.1205674 L170.628438,34.5626478 L160.546758,34.5626478 C160.666778,37.2553191 162.627105,38.7423168 164.587431,38.7423168 C165.987665,38.7423168 167.387898,38.179669 168.068011,36.5319149 L170.188365,37.4160757 C169.428238,39.2647754 167.547925,40.9125296 164.627438,40.9125296 C160.786798,40.9125296 158.186364,37.9787234 158.186364,34.1205674 M164.387398,29.498818 C162.627105,29.498818 161.226871,30.7044917 160.746791,32.5933806 L168.148025,32.5933806 C168.028005,31.4680851 167.107851,29.498818 164.387398,29.498818" id="Shape" fill="#FFFFFF"></path>
                <path d="M91.5752625,40.8723404 C88.8948158,40.8723404 86.6944491,39.9881797 84.894149,38.179669 C83.093849,36.3711584 82.2137023,34.1205674 82.2137023,31.427896 C82.2137023,28.7352246 83.093849,26.4846336 84.894149,24.7163121 C86.6544424,22.9078014 88.8948158,21.9834515 91.5752625,21.9834515 C94.295716,21.9834515 96.4960827,22.9881797 98.1763627,24.9574468 L96.5360893,26.5650118 C95.255876,24.9976359 93.5755959,24.2340426 91.5752625,24.2340426 C89.5749292,24.2340426 87.9346558,24.9172577 86.5744291,26.2434988 C85.254209,27.56974 84.5740957,29.2978723 84.5740957,31.427896 C84.5740957,33.5579196 85.254209,35.286052 86.5744291,36.6122931 C87.9346558,37.9787234 89.5749292,38.6217494 91.5752625,38.6217494 C93.6556093,38.6217494 95.495916,37.7375887 97.0161694,35.9692671 L98.6964494,37.6170213 C97.8563094,38.6619385 96.7761294,39.4255319 95.5359227,39.9881797 C94.3357226,40.5910165 93.0155026,40.8723404 91.5752625,40.8723404" id="Path" fill="#FFFFFF"></path>
                <path d="M171.988665,34.1607565 C171.988665,30.2624113 174.709118,27.3286052 178.549758,27.3286052 C181.590265,27.3286052 183.350558,29.1371158 184.150692,31.0260047 L181.950325,31.9503546 C181.310218,30.4231678 180.150025,29.5390071 178.389732,29.5390071 C176.349392,29.5390071 174.389065,31.3877069 174.389065,34.1607565 C174.389065,36.9338061 176.389398,38.7825059 178.389732,38.7825059 C180.150025,38.7825059 181.470245,37.858156 182.070345,36.3711584 L184.190698,37.2955083 C183.430572,39.1843972 181.550258,40.9929078 178.549758,40.9929078 C174.709118,40.9929078 171.988665,38.0189125 171.988665,34.1607565" id="Path" fill="#FFFFFF"></path>
                <path d="M185.550925,36.6926714 C185.550925,33.7990544 188.151359,32.2316785 191.151859,32.2316785 C192.872145,32.2316785 194.112352,32.713948 194.632439,32.9952719 L194.632439,32.6335697 C194.632439,30.7044917 193.072179,29.5390071 191.311885,29.5390071 C189.991665,29.5390071 188.711452,30.1820331 188.271379,31.3877069 L186.111019,30.463357 C186.551092,29.2978723 188.071345,27.3687943 191.271879,27.3687943 C194.392399,27.3687943 196.952825,29.2576832 196.952825,32.8747045 L196.952825,40.5910165 L194.672445,40.5910165 L194.672445,38.822695 L194.552425,38.822695 C193.832305,39.9078014 192.552092,41.0330969 190.351725,41.0330969 C187.711285,40.9929078 185.550925,39.3853428 185.550925,36.6926714 M194.592432,35.0449173 C194.592432,35.0449173 193.552259,34.2009456 191.551925,34.2009456 C189.031505,34.2009456 188.031339,35.5673759 188.031339,36.7328605 C188.031339,38.0992908 189.431572,38.7825059 190.671779,38.7825059 C192.592099,38.7825059 194.592432,37.1347518 194.592432,35.0449173" id="Shape" fill="#FFFFFF"></path>
                <path d="M198.353059,37.3356974 L200.473412,36.4515366 C201.153526,38.0591017 202.393732,38.8628842 203.953992,38.8628842 C205.434239,38.8628842 206.474412,38.1394799 206.474412,37.0543735 C206.474412,36.4113475 206.074346,35.6879433 204.754126,35.3664303 L202.193699,34.7234043 C201.033506,34.4420804 198.793132,33.3971631 198.793132,31.1465721 C198.793132,28.8156028 201.193532,27.3286052 203.833972,27.3286052 C206.034339,27.3286052 207.954659,28.3333333 208.754792,30.3026005 L206.674446,31.1867612 C206.194366,29.9810875 204.994166,29.498818 203.753959,29.498818 C202.393732,29.498818 201.233539,30.1016548 201.233539,31.1465721 C201.233539,31.9503546 201.913652,32.392435 202.913819,32.6335697 L205.434239,33.2364066 C207.954659,33.8392435 208.954826,35.4066194 208.954826,36.9739953 C208.954826,39.2245863 206.914486,40.9929078 203.913986,40.9929078 C200.833472,40.9929078 199.113186,39.144208 198.353059,37.3356974" id="Path" fill="#FFFFFF"></path>
                <path d="M212.035339,36.6926714 L212.035339,29.9810875 L209.794966,29.9810875 L209.794966,27.8108747 L212.035339,27.8108747 L212.035339,23.9125296 L214.435739,23.9125296 L214.435739,27.8108747 L217.556259,27.8108747 L217.556259,29.9810875 L214.435739,29.9810875 L214.435739,36.5319149 C214.435739,37.9787234 215.035839,38.6217494 216.156026,38.6217494 C216.596099,38.6217494 216.916153,38.5815603 217.236206,38.4208038 L218.076346,40.4704492 C217.556259,40.7115839 216.956159,40.7919622 216.156026,40.7919622 C213.435573,40.7919622 212.035339,39.3049645 212.035339,36.6926714" id="Path" fill="#FFFFFF"></path>
            </g>
        </g>
    </g>
</svg>