<?xml version="1.0" encoding="UTF-8"?>
<svg width="97px" height="115px" viewBox="0 0 97 115" version="1.1" xmlns="http://www.w3.org/2000/svg" xmlns:xlink="http://www.w3.org/1999/xlink">
    <title>34</title>
    <defs>
        <path d="M77.3855257,28.823843 L78.0390003,84.2493197 C78.0390003,86.1118783 76.568484,87.6380276 74.7700393,87.6380276 L22.7175719,87.6380276 C20.9191272,87.6380276 19.4486109,86.1118783 19.4486109,84.2493197 L19.4486109,12.9797874 C19.4486109,11.1090237 20.9191272,9.59107946 22.7175719,9.59107946 L60.4698237,9.59107946 L77.3855257,28.823843 Z" id="path-1"></path>
        <filter x="-53.8%" y="-28.8%" width="207.5%" height="180.7%" filterUnits="objectBoundingBox" id="filter-2">
            <feOffset dx="0" dy="9" in="SourceAlpha" result="shadowOffsetOuter1"></feOffset>
            <feGaussianBlur stdDeviation="9" in="shadowOffsetOuter1" result="shadowBlurOuter1"></feGaussianBlur>
            <feColorMatrix values="0 0 0 0 0.396078431   0 0 0 0 0.478431373   0 0 0 0 0.576470588  0 0 0 0.18 0" type="matrix" in="shadowBlurOuter1"></feColorMatrix>
        </filter>
        <linearGradient x1="0%" y1="50.4442251%" x2="100.009915%" y2="50.4442251%" id="linearGradient-3">
            <stop stop-color="#FF66A9" offset="0%"></stop>
            <stop stop-color="#F53689" offset="100%"></stop>
        </linearGradient>
        <linearGradient x1="1.47014811%" y1="59.0736718%" x2="98.2004343%" y2="37.3687302%" id="linearGradient-4">
            <stop stop-color="#FF66A9" offset="0%"></stop>
            <stop stop-color="#F53689" offset="100%"></stop>
        </linearGradient>
        <linearGradient x1="7.30612595%" y1="52.0664543%" x2="91.279401%" y2="35.3765123%" id="linearGradient-5">
            <stop stop-color="#83A6FF" offset="0%"></stop>
            <stop stop-color="#5A78FF" offset="100%"></stop>
        </linearGradient>
        <linearGradient x1="24.9269106%" y1="9.12431108%" x2="77.0606521%" y2="92.4678506%" id="linearGradient-6">
            <stop stop-color="#83A6FF" offset="0%"></stop>
            <stop stop-color="#5A78FF" offset="100%"></stop>
        </linearGradient>
        <path d="M83.93377,83.6667573 C83.7702028,84.593934 83.5256461,85.4472648 83.1985118,86.2923905 C81.237294,91.3795549 76.8241569,94.9323649 71.7583393,95.7856957 C69.9606886,96.122105 68.1630379,96.0400539 66.2828097,95.6954396 C58.2751653,94.0051882 53.0449865,85.7836741 54.7608536,77.480109 C56.4775147,69.1765438 64.3215919,63.7529702 72.3300303,65.5252726 C75.1900734,66.1242452 77.8047658,67.5601384 79.8477672,69.7673113 C83.4438625,73.2380703 84.9961624,78.5795929 83.93377,83.6667573 Z" id="path-7"></path>
        <filter x="-36.9%" y="-22.7%" width="173.8%" height="171.4%" filterUnits="objectBoundingBox" id="filter-8">
            <feOffset dx="0" dy="4" in="SourceAlpha" result="shadowOffsetOuter1"></feOffset>
            <feGaussianBlur stdDeviation="3" in="shadowOffsetOuter1" result="shadowBlurOuter1"></feGaussianBlur>
            <feColorMatrix values="0 0 0 0 0.11372549   0 0 0 0 0.294117647   0 0 0 0 1  0 0 0 0.22 0" type="matrix" in="shadowBlurOuter1"></feColorMatrix>
        </filter>
        <linearGradient x1="24.7874711%" y1="29.4161123%" x2="74.1612679%" y2="85.8093126%" id="linearGradient-9">
            <stop stop-color="#4F6AFF" offset="0%"></stop>
            <stop stop-color="#657EFF" stop-opacity="0" offset="100%"></stop>
        </linearGradient>
        <linearGradient x1="134.413364%" y1="137.96202%" x2="17.5475141%" y2="7.64160889%" id="linearGradient-10">
            <stop stop-color="#C2D1FF" offset="1.13208%"></stop>
            <stop stop-color="#FFFFFF" offset="100%"></stop>
        </linearGradient>
        <linearGradient x1="139.657377%" y1="75.7068023%" x2="14.7788289%" y2="40.7599326%" id="linearGradient-11">
            <stop stop-color="#C2D1FF" offset="1.13208%"></stop>
            <stop stop-color="#FFFFFF" offset="100%"></stop>
        </linearGradient>
        <linearGradient x1="83.9849624%" y1="64.3007799%" x2="8.06824754%" y2="30.987476%" id="linearGradient-12">
            <stop stop-color="#C2D1FF" offset="1.13208%"></stop>
            <stop stop-color="#FFFFFF" offset="100%"></stop>
        </linearGradient>
        <linearGradient x1="149.07976%" y1="63.329735%" x2="11.9090586%" y2="43.5810236%" id="linearGradient-13">
            <stop stop-color="#C2D1FF" offset="1.13208%"></stop>
            <stop stop-color="#FFFFFF" offset="100%"></stop>
        </linearGradient>
    </defs>
    <g id="Desktop" stroke="none" stroke-width="1" fill="none" fill-rule="evenodd">
        <g id="Resellers" transform="translate(-971.000000, -862.000000)" fill-rule="nonzero">
            <g id="34" transform="translate(971.000000, 862.000000)">
                <path d="M48.1077994,92.5528848 C70.5379377,92.5528848 88.7208882,73.6975561 88.7208882,50.4360866 C88.7208882,27.1746171 70.5379377,8.31928836 48.1077994,8.31928836 C25.677661,8.31928836 7.49471047,27.1746171 7.49471047,50.4360866 C7.49471047,73.6975561 25.677661,92.5528848 48.1077994,92.5528848 Z" id="Path" fill="#EAEEF9"></path>
                <path d="M8.15771325,25.7551341 C9.23122195,25.3941095 9.81799926,24.2043695 9.46942654,23.0884753 C9.12085382,21.9725812 7.96794359,21.3654035 6.89522892,21.7264281 C5.82172022,22.0874527 5.23494291,23.2853978 5.58351563,24.401292 C5.93208835,25.508981 7.08499857,26.1161587 8.15771325,25.7551341 Z" id="Path" fill="#EAEEF9"></path>
                <path d="M12.6176972,18.8464366 C13.3473973,18.6002835 13.745993,17.7879782 13.5093764,17.0331087 C13.2719658,16.270034 12.4882727,15.8597788 11.7585727,16.1059319 C11.0288726,16.3520851 10.6294829,17.1643903 10.8668935,17.9192599 C11.1043041,18.6741295 11.8879972,19.0925898 12.6176972,18.8464366 Z" id="Path" fill="#EAEEF9"></path>
                <path d="M92.9895145,39.8597077 C94.2551749,38.6617625 94.3441046,36.6186916 93.1872243,35.305875 C92.030344,33.9930584 90.0659502,33.9028023 88.8002898,35.1007474 C87.5338354,36.3068977 87.4456997,38.3417635 88.60258,39.6545801 C89.7594603,40.9673967 91.7238541,41.0576528 92.9895145,39.8597077 Z" id="Path" fill="#EAEEF9"></path>
                <path d="M93.223749,25.4187248 C93.7573273,24.9182135 93.794646,24.0566776 93.3071206,23.5069356 C92.8203893,22.9489886 91.9930253,22.9161682 91.460241,23.4166795 C90.9266628,23.9253959 90.8901381,24.7787267 91.3768694,25.3366738 C91.8643948,25.8864158 92.6909648,25.9274413 93.223749,25.4187248 Z" id="Path" fill="#EAEEF9"></path>
                <g id="Path">
                    <use fill="black" fill-opacity="1" filter="url(#filter-2)" xlink:href="#path-1"></use>
                    <use fill="#FFFFFF" xlink:href="#path-1"></use>
                </g>
                <path d="M44.7808752,76.6185731 L42.901441,76.6185731 C42.4925231,76.6185731 42.1653888,76.2821638 42.1653888,75.8554984 C42.1653888,75.4370381 42.4925231,75.1006288 42.901441,75.1006288 L44.7808752,75.1006288 C45.1889991,75.1006288 45.5161334,75.4370381 45.5161334,75.8554984 C45.5161334,76.2821638 45.1889991,76.6185731 44.7808752,76.6185731 Z" id="Path" fill="#E3EAF2"></path>
                <path d="M39.4689128,76.6185731 L28.4376582,76.6185731 C28.0287403,76.6185731 27.701606,76.2821638 27.701606,75.8554984 C27.701606,75.4370381 28.0287403,75.1006288 28.4376582,75.1006288 L39.4689128,75.1006288 C39.8778307,75.1006288 40.204171,75.4370381 40.204171,75.8554984 C40.2859546,76.2821638 39.9596143,76.6185731 39.4689128,76.6185731 Z" id="Path" fill="#E3EAF2"></path>
                <path d="M53.9326956,21.2013015 L29.0093492,21.2013015 C28.4376582,21.2013015 27.9469567,20.692585 27.9469567,20.0936124 C27.9469567,19.502845 28.4376582,18.9941285 29.0093492,18.9941285 L53.9326956,18.9941285 C54.5043867,18.9941285 54.9950881,19.502845 54.9950881,20.0936124 C54.9950881,20.692585 54.5043867,21.2013015 53.9326956,21.2013015 Z" id="Path" fill="#CED7E2"></path>
                <path d="M38.4883039,27.3879498 L29.0093492,27.3879498 C28.4376582,27.3879498 27.9469567,26.8792333 27.9469567,26.2802608 C27.9469567,25.6894933 28.4376582,25.1807768 29.0093492,25.1807768 L38.5700875,25.1807768 C39.1417785,25.1807768 39.63248,25.6894933 39.63248,26.2802608 C39.63248,26.8792333 39.0599949,27.3879498 38.4883039,27.3879498 Z" id="Path" fill="#CED7E2"></path>
                <path d="M60.4698237,9.6731305 L60.4698237,24.9264186 C60.4698237,27.0433354 62.2674743,28.823843 64.3104757,28.823843 L77.3855257,28.823843" id="Path" fill="#EAEFF4"></path>
                <path d="M69.2135202,38.9981718 L56.2210477,38.9981718 C56.2210477,38.9981718 56.2210477,38.9981718 56.1392642,38.9981718 C56.0574806,38.9981718 56.1392642,38.9981718 56.0574806,38.9981718 L42.6560903,38.9981718 C42.6560903,38.9981718 42.6560903,38.9981718 42.5743067,38.9981718 C42.4925231,38.9981718 42.5743067,38.9981718 42.4925231,38.9981718 L29.9081745,38.9981718 C28.5186477,38.9981718 27.3752657,40.1797067 27.3752657,41.7058561 L27.3752657,65.2627093 C27.3752657,66.7068076 28.5186477,67.9785987 29.9081745,67.9785987 L69.1317366,67.9785987 C70.5212634,67.9785987 71.6654395,66.7888586 71.6654395,65.2627093 L71.6654395,41.7058561 C71.746429,40.2617578 70.603047,38.9981718 69.2135202,38.9981718 Z M43.3913484,59.8391356 L43.3913484,54.5878691 L55.403212,54.5878691 L55.403212,59.8391356 L43.3913484,59.8391356 Z M55.403212,61.4555411 L55.403212,66.2801422 L43.3913484,66.2801422 L43.3913484,61.4555411 L55.403212,61.4555411 Z M55.403212,47.6381462 L55.403212,52.8894126 L43.3913484,52.8894126 L43.3913484,47.6381462 L55.403212,47.6381462 Z M43.3913484,46.0299458 L43.3913484,40.6063721 L55.403212,40.6063721 L55.403212,46.0299458 L43.3913484,46.0299458 Z M70.1941291,52.9796688 L56.9563059,52.9796688 L56.9563059,47.7201972 L70.1941291,47.7201972 L70.1941291,52.9796688 Z M41.8390485,52.9796688 L28.9275656,52.9796688 L28.9275656,47.7201972 L41.7572649,47.7201972 L41.7572649,52.9796688 L41.8390485,52.9796688 Z M28.9275656,54.5878691 L41.7572649,54.5878691 L41.7572649,59.8391356 L28.9275656,59.8391356 L28.9275656,54.5878691 Z M56.9563059,54.5878691 L70.1941291,54.5878691 L70.1941291,59.8391356 L56.9563059,59.8391356 L56.9563059,54.5878691 Z M70.1941291,41.7058561 L70.1941291,46.0299458 L56.9563059,46.0299458 L56.9563059,40.6063721 L69.2135202,40.6063721 C69.7042217,40.6063721 70.1941291,41.1150886 70.1941291,41.7058561 Z M29.9081745,40.6063721 L41.7572649,40.6063721 L41.7572649,46.0299458 L28.9275656,46.0299458 L28.9275656,41.7058561 C28.9275656,41.1150886 29.4174731,40.6063721 29.9081745,40.6063721 Z M28.9275656,65.2627093 L28.9275656,61.4555411 L41.7572649,61.4555411 L41.7572649,66.2801422 L29.9081745,66.2801422 C29.4174731,66.2801422 28.9275656,65.8616819 28.9275656,65.2627093 Z M69.2135202,66.2801422 L56.9563059,66.2801422 L56.9563059,61.4555411 L70.1941291,61.4555411 L70.1941291,65.2627093 C70.1941291,65.8616819 69.7042217,66.2801422 69.2135202,66.2801422 Z" id="Shape" fill="#E3EAF2"></path>
                <path d="M32.6244598,53.1363671 L10.8057132,53.1363671 C9.66153719,53.1363671 8.76271186,52.2009852 8.76271186,51.0194503 L8.76271186,40.6810194 C8.76271186,39.4912793 9.66153719,38.5641026 10.8057132,38.5641026 L32.6244598,38.5641026 C33.7678419,38.5641026 34.6666672,39.4912793 34.6666672,40.6810194 L34.6666672,50.9373992 C34.6666672,52.1189342 33.7678419,53.1363671 32.6244598,53.1363671 Z" id="Path" fill="#1C3754"></path>
                <path d="M7.68130407,67.133473 L7.35416976,67.133473 C7.19139663,67.133473 7.10961305,66.9611658 7.02782947,66.8791148 C7.02782947,66.7888586 6.9460459,66.7068076 6.86426232,66.5345004 C6.78247874,66.3703983 6.78247874,66.1980911 6.86426232,66.1160401 L7.02782947,65.8616819 C7.10961305,65.6893747 7.10961305,65.4350165 7.02782947,65.3529654 L6.53712801,64.7539929 C6.37356086,64.5898908 6.21078772,64.5898908 6.04722057,64.7539929 L5.80186984,64.9263 C5.72008626,65.0083511 5.55651911,65.0083511 5.39295196,64.9263 C5.31116838,64.844249 5.23017882,64.844249 5.06661167,64.7539929 C4.90304451,64.7539929 4.82126094,64.5898908 4.82126094,64.4175836 L4.73947736,64.0811743 C4.73947736,63.9088672 4.57591021,63.73656 4.33135349,63.73656 L3.59530131,63.73656 C3.43173415,63.73656 3.26896101,63.9088672 3.18717744,64.0811743 L3.18717744,64.4175836 C3.18717744,64.5898908 3.02361028,64.6719418 2.94182671,64.7539929 C2.86004313,64.7539929 2.77825956,64.844249 2.6146924,64.9263 C2.45112525,65.0083511 2.28835211,65.0083511 2.20656854,64.9263 L1.96121781,64.7539929 C1.79765065,64.6719418 1.55229992,64.6719418 1.47051635,64.7539929 L0.898825326,65.2627093 C0.735258173,65.4350165 0.735258173,65.6073237 0.898825326,65.7714257 L1.06239248,66.1160401 C1.14417606,66.1980911 1.14417606,66.3703983 1.06239248,66.5345004 C0.980608903,66.6247565 0.980608903,66.7068076 0.898825326,66.8791148 C0.898825326,66.9611658 0.81704175,67.0432168 0.653474597,67.133473 L0.327134306,67.215524 C0.163567153,67.215524 0,67.3878312 0,67.6421894 L0,68.4052641 C0,68.5693662 0.163567153,68.7416733 0.327134306,68.8237244 L0.653474597,68.9139805 C0.81704175,68.9139805 0.898825326,69.0780826 0.980608903,69.1683387 C0.980608903,69.2503898 1.06239248,69.422697 1.14417606,69.504748 C1.22595963,69.6688501 1.22595963,69.8411573 1.14417606,69.9232083 L0.980608903,70.1775665 C0.898825326,70.3498737 0.898825326,70.6042319 0.980608903,70.686283 L1.47051635,71.1949994 C1.6340835,71.3673066 1.79765065,71.3673066 1.96121781,71.1949994 L2.20656854,71.0308973 C2.28835211,70.9406412 2.45112525,70.9406412 2.6146924,71.0308973 C2.69647598,71.1129484 2.77825956,71.1129484 2.94182671,71.1949994 C3.10539386,71.2852555 3.18717744,71.3673066 3.18717744,71.5396138 L3.26896101,71.7037158 C3.26896101,71.9580741 3.43173415,72.0483302 3.59530131,72.0483302 L4.33135349,72.0483302 C4.49412663,72.0483302 4.65769378,71.876023 4.73947736,71.7037158 L4.82126094,71.3673066 C4.82126094,71.1949994 4.98482809,71.1129484 5.06661167,71.0308973 C5.14839524,71.0308973 5.23017882,70.9406412 5.39295196,70.8585901 C5.55651911,70.7765391 5.72008626,70.7765391 5.80186984,70.8585901 L6.04722057,71.1949994 C6.21078772,71.2852555 6.45534444,71.2852555 6.53712801,71.1949994 L7.02782947,70.686283 C7.19139663,70.5221809 7.19139663,70.3498737 7.02782947,70.1775665 L6.86426232,69.9232083 C6.78247874,69.8411573 6.78247874,69.6688501 6.86426232,69.504748 C6.9460459,69.422697 6.9460459,69.3324408 7.02782947,69.1683387 C7.10961305,68.9960316 7.19139663,68.9139805 7.35416976,68.9139805 L7.68130407,68.8237244 C7.84487122,68.8237244 8.00843838,68.6596223 8.00843838,68.4052641 L8.00843838,67.6421894 C8.00843838,67.2975751 7.84487122,67.133473 7.68130407,67.133473 Z M4.00421919,69.3324408 C3.26896101,69.3324408 2.6146924,68.7416733 2.6146924,67.8965476 C2.6146924,67.133473 3.18717744,66.4524494 4.00421919,66.4524494 C4.73947736,66.4524494 5.39295196,67.0432168 5.39295196,67.8965476 C5.39295196,68.7416733 4.73947736,69.3324408 4.00421919,69.3324408 Z" id="Shape" fill="url(#linearGradient-3)"></path>
                <path d="M84.2108813,6.57980634 L79.4714039,7.67929026 C79.2260532,7.7695464 78.9814965,7.59723922 78.8997129,7.342881 L77.8373204,2.42802378 C77.7555369,2.00135837 77.4284026,1.8372563 77.0202787,1.91930734 L76.9384951,1.91930734 C73.8331012,3.1090474 72.2808013,6.66185738 73.4241834,9.8864632 C74.5683594,13.1028639 78.0008876,14.7192694 81.1054874,13.5295293 C83.6391903,12.5941475 85.1914902,9.96851424 85.027923,7.26082996 C85.027923,6.83416456 84.7015828,6.57980634 84.2926649,6.57980634 C84.2108813,6.4977553 84.2108813,6.4977553 84.2108813,6.57980634 Z" id="Path" fill="url(#linearGradient-4)"></path>
                <path d="M78.8179293,0.729567273 L79.8803218,5.6526296 C79.9621054,5.98903886 80.2066621,6.15314094 80.5337964,6.0710899 L85.2732738,4.97160598 C85.6004081,4.88955494 85.7631812,4.63519672 85.6821917,4.29058236 C84.9461395,1.66494912 82.0860963,-0.369916647 79.3078368,0.0567487547 C78.9814965,0.138799793 78.7361458,0.393158014 78.8179293,0.729567273 Z" id="Path" fill="url(#linearGradient-5)"></path>
                <g id="Path">
                    <use fill="black" fill-opacity="1" filter="url(#filter-8)" xlink:href="#path-7"></use>
                    <use fill="url(#linearGradient-6)" xlink:href="#path-7"></use>
                </g>
                <path d="M83.1873956,86.2841854 C81.2261778,91.3713498 76.8130407,94.9241598 71.747223,95.7774906 L70.4394798,94.4154434 L63.1662996,86.4564926 L63.5752175,85.85752 L71.5836559,86.0298272 L66.2716935,78.907797 L70.7666141,76.7908802 L67.9875606,74.247298 L70.9293873,73.5744795 L83.1873956,86.2841854 Z" id="Path" fill="url(#linearGradient-9)"></path>
                <path d="M68.8482732,82.9529133 C69.0936239,83.2893225 69.5835313,83.3713736 69.9106656,83.1252204 C69.9924492,83.1252204 69.9924492,83.0349643 70.0742328,82.9529133 L73.0160595,79.13754 C73.2614102,78.8011307 73.1796267,78.2924143 72.8524923,78.038056 C72.6889252,77.9477999 72.525358,77.8657489 72.3617909,77.8657489 L70.9730581,77.8657489 L70.9730581,75.5765249 C70.9730581,75.4124228 70.8912745,75.3221666 70.7277074,75.3221666 L70.2377999,75.3221666 L68.1947986,75.3221666 C68.0312314,75.3221666 67.9494478,75.4124228 67.9494478,75.5765249 L67.9494478,77.8657489 L66.559921,77.8657489 C66.1517972,77.8657489 65.8246629,78.2021581 65.8246629,78.6288235 C65.8246629,78.8011307 65.9064465,78.9652328 65.98823,79.13754 L68.8482732,82.9529133 Z" id="Path" fill="url(#linearGradient-10)"></path>
                <path d="M70.809491,74.3047338 L68.1947986,74.3047338 C68.113015,74.3047338 67.9494478,74.2226827 67.9494478,74.0503755 L67.9494478,73.7139663 C67.9494478,73.6319153 68.0312314,73.4596081 68.1947986,73.4596081 L70.809491,73.4596081 C70.8912745,73.4596081 71.0548417,73.5416591 71.0548417,73.7139663 L71.0548417,74.0503755 C71.0548417,74.2226827 70.8912745,74.3047338 70.809491,74.3047338 Z" id="Path" fill="url(#linearGradient-11)"></path>
                <path d="M64.5177137,87.0226448 C63.4553212,87.0226448 62.6374854,86.169314 62.6374854,85.1518811 L62.6374854,82.1077876 C62.6374854,81.5990711 63.0464033,81.1724057 63.5371048,81.1724057 C64.0270122,81.1724057 64.3541465,81.5990711 64.3541465,82.1077876 L64.3541465,85.2421372 L74.650143,85.2421372 L74.650143,82.1077876 C74.650143,81.5990711 75.0590609,81.2544568 75.4671847,81.2544568 C75.9578862,81.2544568 76.3660101,81.6811222 76.3660101,82.1077876 L76.3660101,85.1518811 C76.3660101,86.169314 75.5489683,87.0226448 74.4865758,87.0226448 L64.5177137,87.0226448 Z" id="Path" fill="url(#linearGradient-12)"></path>
                <path d="M14.5644238,49.2307692 C15.0870001,49.2307692 15.5633729,49.1437949 15.9935424,48.9698462 C16.4237119,48.7958974 16.7917458,48.5513846 17.0976441,48.2363077 C17.4035424,47.9212308 17.6409323,47.5454359 17.8098136,47.1089231 C17.978695,46.6724103 18.0631356,46.1932308 18.0631356,45.6713846 C18.0631356,45.1495385 17.978695,44.670359 17.8098136,44.2338462 C17.6409323,43.7973333 17.4035424,43.422359 17.0976441,43.1089231 C16.7917458,42.7954872 16.4237119,42.5509744 15.9935424,42.3753846 C15.5633729,42.1997949 15.0870001,42.112 14.5644238,42.112 L14.5644238,42.112 L11.9260509,42.112 L11.9260509,49.2307692 L14.5644238,49.2307692 Z M14.5644238,48.1772308 L13.221339,48.1772308 L13.221339,43.1655385 L14.5644238,43.1655385 C14.9021865,43.1655385 15.205695,43.2229744 15.4749492,43.3378462 C15.7442034,43.4527179 15.9728306,43.617641 16.1608306,43.8326154 C16.3488306,44.0475897 16.4938136,44.3101538 16.5957797,44.6203077 C16.6977458,44.9304615 16.7487289,45.2808205 16.7487289,45.6713846 C16.7487289,46.0619487 16.6977458,46.4123077 16.5957797,46.7224615 C16.4938136,47.0326154 16.3488306,47.2951795 16.1608306,47.5101538 C15.9728306,47.7251282 15.7442034,47.8900513 15.4749492,48.0049231 C15.205695,48.1197949 14.9021865,48.1772308 14.5644238,48.1772308 L14.5644238,48.1772308 Z M20.2920509,49.2307692 L20.2920509,44.8590769 C20.2920509,44.7737436 20.289661,44.6793846 20.2848814,44.576 C20.2801017,44.4726154 20.2729322,44.3684103 20.2633729,44.2633846 L20.2633729,44.2633846 L23.8767966,49.0043077 C23.9405254,49.089641 24.0058475,49.1487179 24.0727627,49.1815385 C24.139678,49.214359 24.2241187,49.2307692 24.3260848,49.2307692 L24.3260848,49.2307692 L24.9904576,49.2307692 L24.9904576,42.112 L23.857678,42.112 L23.857678,46.4393846 C23.857678,46.5345641 23.8600678,46.6371282 23.8648475,46.7470769 C23.8696271,46.8570256 23.8783898,46.9694359 23.8911356,47.0843077 L23.8911356,47.0843077 L20.2633729,42.3236923 C20.2283221,42.2777436 20.1964576,42.2408205 20.1677797,42.2129231 C20.1391017,42.1850256 20.1096271,42.1636923 20.079356,42.1489231 C20.0490848,42.1341538 20.0148305,42.1243077 19.9765932,42.1193846 C19.938356,42.1144615 19.8905593,42.112 19.8332034,42.112 L19.8332034,42.112 L19.1592712,42.112 L19.1592712,49.2307692 L20.2920509,49.2307692 Z M28.218322,49.3095385 C28.6006949,49.3095385 28.9400508,49.249641 29.2363898,49.1298462 C29.5327288,49.0100513 29.783661,48.8459487 29.9891864,48.6375385 C30.1947118,48.4291282 30.3508474,48.1846154 30.4575932,47.904 C30.564339,47.6233846 30.6177118,47.3222564 30.6177118,47.0006154 C30.6177118,46.7052308 30.5723051,46.4541538 30.4814915,46.2473846 C30.3906779,46.0406154 30.2703898,45.8658462 30.1206271,45.7230769 C29.9708644,45.5803077 29.8003898,45.4621538 29.6092034,45.3686154 C29.4180169,45.2750769 29.2228474,45.1930256 29.0236949,45.1224615 C28.8245424,45.0518974 28.6293729,44.9854359 28.4381864,44.9230769 C28.247,44.8607179 28.0765254,44.7901538 27.9267627,44.7113846 C27.777,44.6326154 27.6567118,44.5374359 27.5658983,44.4258462 C27.4750847,44.3142564 27.4296779,44.1747692 27.4296779,44.0073846 C27.4296779,43.8761026 27.451983,43.7554872 27.4965932,43.6455385 C27.5412034,43.5355897 27.6089152,43.4412308 27.6997288,43.3624615 C27.7905424,43.2836923 27.9020678,43.2221538 28.0343051,43.1778462 C28.1665424,43.1335385 28.3218813,43.1113846 28.500322,43.1113846 C28.6978813,43.1113846 28.8691525,43.1368205 29.0141356,43.1876923 C29.1591186,43.2385641 29.2857796,43.2951795 29.3941186,43.3575385 C29.5024576,43.4198974 29.5964576,43.4765128 29.6761186,43.5273846 C29.7557796,43.5782564 29.8274746,43.6036923 29.8912034,43.6036923 C29.9549322,43.6036923 30.0098983,43.5889231 30.0561017,43.5593846 C30.1023051,43.5298462 30.1429322,43.4789744 30.177983,43.4067692 L30.177983,43.4067692 L30.4934407,42.7815385 C30.2512712,42.5452308 29.9581186,42.3614359 29.613983,42.2301538 C29.2698474,42.0988718 28.8938474,42.0332308 28.485983,42.0332308 C28.1259152,42.0332308 27.8056779,42.0906667 27.5252712,42.2055385 C27.2448644,42.3204103 27.0082712,42.4730256 26.8154915,42.6633846 C26.6227118,42.8537436 26.4761356,43.072 26.3757627,43.3181538 C26.2753898,43.5643077 26.2252034,43.8170256 26.2252034,44.0763077 C26.2252034,44.4012308 26.2706102,44.6744615 26.3614237,44.896 C26.4522373,45.1175385 26.5725254,45.3021538 26.7222881,45.4498462 C26.8720508,45.5975385 27.0425254,45.7173333 27.2337118,45.8092308 C27.4248983,45.9011282 27.6192712,45.9798974 27.8168305,46.0455385 C28.0143898,46.1111795 28.2087627,46.1718974 28.3999491,46.2276923 C28.5911356,46.2834872 28.7616102,46.3515897 28.9113729,46.432 C29.0611356,46.5124103 29.1814237,46.6116923 29.2722373,46.7298462 C29.3630508,46.848 29.4084576,47.0006154 29.4084576,47.1876923 C29.4084576,47.5224615 29.3080847,47.7792821 29.107339,47.9581538 C28.9065932,48.1370256 28.623,48.2264615 28.2565593,48.2264615 C28.0175763,48.2264615 27.8128474,48.1928205 27.6423729,48.1255385 C27.4718983,48.0582564 27.3237288,47.9835897 27.1978644,47.9015385 C27.072,47.8194872 26.9628644,47.7448205 26.8704576,47.6775385 C26.7780508,47.6102564 26.6920169,47.5766154 26.6123559,47.5766154 C26.5518135,47.5766154 26.4968474,47.5922051 26.4474576,47.6233846 C26.3980678,47.6545641 26.3558474,47.6931282 26.3207966,47.7390769 L26.3207966,47.7390769 L25.947983,48.3741538 C26.0818135,48.5152821 26.2339661,48.6432821 26.4044407,48.7581538 C26.5749152,48.8730256 26.7581356,48.9714872 26.9541017,49.0535385 C27.1500678,49.1355897 27.3547966,49.1987692 27.5682881,49.2430769 C27.7817796,49.2873846 27.9984576,49.3095385 28.218322,49.3095385 Z" id="DNS" fill="url(#linearGradient-13)"></path>
            </g>
        </g>
    </g>
</svg>